<svg xmlns="http://www.w3.org/2000/svg" version="1" width="512" height="512" viewBox="0 0 439 439">
  <path id="crossSVG" d="M409 109a218 218 0 0 0-300-80 218 218 0 0 0-80 300 218 218 0 0 0 300 80 218 218 0 0 0 80-300zm-86 162c3 4 5 8 5 13s-2 9-5 13l-26 26c-4 3-8 5-13 5s-9-2-13-5l-52-52-51 52c-4 3-8 5-13 5s-10-2-13-5l-26-26c-4-4-6-8-6-13s2-9 6-13l52-52-52-51c-4-4-6-8-6-13s2-10 6-13l26-26c3-4 8-6 13-6s9 2 13 6l51 52 52-52c4-4 8-6 13-6s9 2 13 6l26 26c3 3 5 8 5 13s-2 9-5 13l-52 51 52 52z" fill="#D80027"/>
</svg>
